<svg width="44" height="44" viewBox="0 0 44 44" fill="none" xmlns="http://www.w3.org/2000/svg">
<circle cx="22" cy="22" r="21" fill="#DCDEE2" stroke="white" stroke-width="2"/>
<path d="M12.7962 28C12.2137 28 11.6664 27.8943 11.1542 27.683C10.642 27.461 10.1951 27.1493 9.81347 26.7477C9.44189 26.3355 9.17073 25.8547 9 25.3052L10.2051 24.7662C10.416 25.3474 10.7575 25.8018 11.2295 26.1295C11.7116 26.4465 12.2338 26.605 12.7962 26.605C13.2582 26.605 13.6649 26.4993 14.0164 26.288C14.3779 26.0661 14.6591 25.7649 14.86 25.3844C15.0609 24.9934 15.1613 24.5601 15.1613 24.0845C15.1613 23.5878 15.0558 23.1493 14.8449 22.7688C14.6441 22.3884 14.3679 22.0925 14.0164 21.8811C13.6649 21.6592 13.2632 21.5482 12.8113 21.5482C12.3493 21.5482 11.9275 21.6592 11.5459 21.8811C11.1642 22.103 10.8881 22.3831 10.7173 22.7213L9.52725 22.4518L10.3859 16H16.2007V17.3474H10.9433L11.5157 16.745L10.8529 21.7543L10.3407 21.4373C10.6721 20.9934 11.0588 20.6764 11.5007 20.4861C11.9526 20.2853 12.4397 20.1849 12.9619 20.1849C13.695 20.1849 14.3378 20.3593 14.8901 20.7081C15.4425 21.0568 15.8743 21.5218 16.1857 22.103C16.497 22.6843 16.6526 23.3448 16.6526 24.0845C16.6526 24.8243 16.4819 25.4901 16.1405 26.0819C15.8091 26.6737 15.3521 27.144 14.7696 27.4927C14.1972 27.8309 13.5394 28 12.7962 28Z" fill="black"/>
<path d="M18.81 27.8098V16H20.2863V22.642L19.9248 22.4835L25.2877 16H27.1406L22.6363 21.469L22.7117 20.3593L27.3665 27.8098H25.604L22.0488 22.1982L20.2863 24.3223V27.8098H18.81Z" fill="black"/>
<path d="M31.5862 27.8098V24.5284H28.4679V23.1493H31.5862V19.8838H32.8968V23.1493H36V24.5284H32.8968V27.8098H31.5862Z" fill="black"/>
</svg>
